<svg xmlns="http://www.w3.org/2000/svg" xmlns:xlink="http://www.w3.org/1999/xlink" viewBox="0 0 500 500"><defs><clipPath id="freepik--clip-path--inject-98"><path d="M105.58,325.59S86,338.83,80.38,344.94s-2.54,10.94-2,15.53,2.8,14.76,9.41,18.32,88.84,2,136.7,3.57S375.23,382.07,388,379s15.75-18.84,16.51-27.75-8.37-21.38-13.46-22.9-47.43-1.75-94.52-.73-68.67,5.12-122.38,4.1S117.8,323.3,105.58,325.59Z" style="fill:#b2b2b2;stroke:#263238;stroke-linecap:round;stroke-linejoin:round"></path></clipPath><clipPath id="freepik--clip-path-2--inject-98"><path d="M198.22,209.47s7.89-2.63,9.1-7.28-3.23-20.24-16.59-25.71-35.22-1.62-42.71,6.89.41,16.39.61,18.21-5.87,3-6.88,10.73,8.91,15.58,19.63,18,16-.61,16-4.66-2.43-7.69,2.23-10.72,9.91-8.7,12.14-8.5S198.22,209.47,198.22,209.47Z" style="fill:#263238;stroke:#263238;stroke-linecap:round;stroke-linejoin:round"></path></clipPath></defs><g id="freepik--background-simple--inject-98"><path d="M459.27,260.05s-3,78.38-68.69,129.32-156.19,52.85-229.49,56.32S31.78,406.44,23.71,343.42s48-80.33,78.88-151.25S130.88,97.67,195.44,55,360.37,41.35,412.6,117.81,459.27,260.05,459.27,260.05Z" style="fill:#54C9FF"></path><path d="M459.27,260.05s-3,78.38-68.69,129.32-156.19,52.85-229.49,56.32S31.78,406.44,23.71,343.42s48-80.33,78.88-151.25S130.88,97.67,195.44,55,360.37,41.35,412.6,117.81,459.27,260.05,459.27,260.05Z" style="fill:#fff;opacity:0.7000000000000001"></path></g><g id="freepik--Floor--inject-98"><ellipse cx="251.02" cy="428.72" rx="229.97" ry="45.87" style="fill:#54C9FF"></ellipse><ellipse cx="251.02" cy="428.72" rx="229.97" ry="45.87" style="fill:#fff;opacity:0.5"></ellipse></g><g id="freepik--Window--inject-98"><path d="M346.09,40.86h4.37a62,62,0,0,1,62,62v233a0,0,0,0,1,0,0H284.09a0,0,0,0,1,0,0v-233A62,62,0,0,1,346.09,40.86Z" style="fill:none;stroke:#263238;stroke-linecap:round;stroke-linejoin:round"></path><path d="M298.58,335.2V107.11a49.69,49.69,0,0,1,49.69-49.69h0A49.69,49.69,0,0,1,398,107.11V335.2" style="fill:none;stroke:#263238;stroke-linecap:round;stroke-linejoin:round"></path><line x1="348.27" y1="40.86" x2="348.27" y2="335.54" style="fill:none;stroke:#263238;stroke-linecap:round;stroke-linejoin:round"></line><line x1="284.78" y1="97.62" x2="411.59" y2="97.62" style="fill:none;stroke:#263238;stroke-linecap:round;stroke-linejoin:round"></line><line x1="284.78" y1="137.65" x2="411.59" y2="137.65" style="fill:none;stroke:#263238;stroke-linecap:round;stroke-linejoin:round"></line><line x1="284.78" y1="177.68" x2="411.59" y2="177.68" style="fill:none;stroke:#263238;stroke-linecap:round;stroke-linejoin:round"></line><line x1="284.78" y1="217.7" x2="411.59" y2="217.7" style="fill:none;stroke:#263238;stroke-linecap:round;stroke-linejoin:round"></line><line x1="284.78" y1="257.73" x2="411.59" y2="257.73" style="fill:none;stroke:#263238;stroke-linecap:round;stroke-linejoin:round"></line><line x1="284.78" y1="297.76" x2="411.59" y2="297.76" style="fill:none;stroke:#263238;stroke-linecap:round;stroke-linejoin:round"></line><line x1="301.73" y1="60.89" x2="313.23" y2="71.36" style="fill:none;stroke:#263238;stroke-linecap:round;stroke-linejoin:round"></line><line x1="394.32" y1="60.89" x2="382.82" y2="71.36" style="fill:none;stroke:#263238;stroke-linecap:round;stroke-linejoin:round"></line><path d="M444.4,387.15s22.93-40.48,28.27-59.15S457.92,324,457.92,324s23.85-39.41,25.7-65.34-25.51,6.2-25.51,6.2,9.4-33.41,11.45-62.34-11-14.82-11-14.82-1.09-55.21-8.5-49.73-10.68,23.31-10.68,23.31-4.15-54.44-10.2-39.83,3.52,91.48,3.52,91.48-14.19-40.11-17.67-19.3,22.46,78.79,22.46,78.79-13.18,2.07-14.81,11S442,336.85,442,336.85s-17.39-23.29-20.52-7.48,14.48,64.19,14.48,64.19Z" style="fill:#54C9FF"></path><path d="M470.16,306.77c-3.2-11.25-11.75-3.84-11.75-3.84s18.15-57.86,10.45-62.42-14.17,16-14.17,16,9.31-88.56,4-83.93-8.39,33.49-8.39,33.49S444,125.46,437,139s1.24,95.33,1.24,95.33-13.12-41-14.39-23.08,12.56,77.08,12.56,77.08-15.68-5.12-15.32,3.92,9.42,50.8,9.42,50.8-9.69-4.7-7.34,4.49,13.41,37,13.41,37l11.76,3.84s17-27.86,10-27.36a14.35,14.35,0,0,0-10.4,5.27S473.37,318,470.16,306.77Z" style="fill:none;stroke:#263238;stroke-linecap:round;stroke-linejoin:round"></path><path d="M442.43,383.46s5.16-92.29,3-150.7" style="fill:none;stroke:#263238;stroke-linecap:round;stroke-linejoin:round"></path><polygon points="452.09 426 430.22 426 427.65 379 454.65 379 452.09 426" style="fill:#263238;stroke:#263238;stroke-linecap:round;stroke-linejoin:round"></polygon></g><g id="freepik--Picture--inject-98"><rect x="206.65" y="87.33" width="60.22" height="82.52" style="fill:none;stroke:#263238;stroke-linecap:round;stroke-linejoin:round"></rect><rect x="215.6" y="99.59" width="42.32" height="57.99" style="fill:none;stroke:#263238;stroke-linecap:round;stroke-linejoin:round"></rect></g><g id="freepik--character-1--inject-98"><path d="M116.63,173.05a21.85,21.85,0,0,1,8.38,3.63c3.5,2.7,16.27,23.49,21,28s10.34,10.06,8.39,14.53-5,12.3-13.42,9-10.68-7.57-12.92-11.48-9.5-9.78-9.5-9.78" style="fill:#54C9FF;stroke:#263238;stroke-linecap:round;stroke-linejoin:round"></path><path d="M151.29,215.88c-5.93-6.42-11.17-1.62-14.67,3.9-3.89,6.15-7.35,12.57-10.79,19,0,0-5.18,4.92-5.44,7.25s3.88,8.54,6,8.29,6.22-1.56,6.48-2.85-1.81-1-1.81-1l1.55-2.33-1-5.53c6.81-5.8,17.35-14.83,20.3-17.79C154.62,222.05,153.66,218.45,151.29,215.88Z" style="fill:#fff;stroke:#263238;stroke-linecap:round;stroke-linejoin:round"></path><path d="M79.36,253.38s-2.74,11.73-1.57,15.26,5.43,12.23,5.43,12.23l8.86,112.72,9.58-.24L106,274.71l1.94-.23,3.45,118.87,9.87.39,6.65-114.93s1-14.86,1-16.43-2.59-16-2.59-16Z" style="fill:#263238;stroke:#263238;stroke-linecap:round;stroke-linejoin:round"></path><path d="M92.08,393.59S80.71,403,80.47,406.2s9.14,1.73,13.09-3,7.73-3.46,7.91-6.67l.19-3.21Z" style="fill:#fff;stroke:#263238;stroke-linecap:round;stroke-linejoin:round"></path><path d="M120.93,393.59s11.37,9.4,11.62,12.61-9.15,1.73-13.1-3-7.72-3.46-7.91-6.67l-.19-3.21Z" style="fill:#fff;stroke:#263238;stroke-linecap:round;stroke-linejoin:round"></path><path d="M120.54,187.3l-1.12-13.13c-7.27-3.08-20.18-3.5-24-2,0,0-22.07,11.18-24.31,13.42S61.3,221.39,61.3,227s3.08,9.5,8.66,10.62,9.23-5.87,9.23-5.87-3.08,17-2.52,19,1.6,4.85,3.83,5.13,43.11-1.5,44.79-2.34,2.79-2.51,2.79-6.42-5.59-43.59-5.59-43.59" style="fill:#54C9FF;stroke:#263238;stroke-linecap:round;stroke-linejoin:round"></path><line x1="80.25" y1="210.35" x2="80.02" y2="199.88" style="fill:none;stroke:#263238;stroke-linecap:round;stroke-linejoin:round"></line><ellipse cx="100.28" cy="183.11" rx="10.2" ry="11.18" style="fill:#fff;stroke:#263238;stroke-linecap:round;stroke-linejoin:round"></ellipse><path d="M93.71,163.55s0,20.12,2,23.75,9.22,4.75,9.78,0,.28-22.07.28-22.07Z" style="fill:#fff;stroke:#263238;stroke-linecap:round;stroke-linejoin:round"></path><path d="M105.8,173.26c0-4.4-.07-8-.07-8l-12-1.68s0,3.2.13,7.28A13.43,13.43,0,0,0,105.8,173.26Z" style="fill:#263238;stroke:#263238;stroke-linecap:round;stroke-linejoin:round"></path><path d="M113.83,125.83s2,20.4,2.52,26.27-1.68,13.13-9.22,15.92-13.69-1.11-17.61-6.42-5-5.59-5-5.59a4.84,4.84,0,0,1-5.86-3.63c-1.4-4.75,2.51-6.71,5.58-7.55,0,0-5-11.45-5-14.53s5.3-9.5,16.48-12.29S113.83,125.83,113.83,125.83Z" style="fill:#fff;stroke:#263238;stroke-linecap:round;stroke-linejoin:round"></path><path d="M104.89,137.85l.28,4.47s6.43.56,4.19,2.51a15.73,15.73,0,0,1-5.87,2.8" style="fill:none;stroke:#263238;stroke-linecap:round;stroke-linejoin:round"></path><path d="M94.55,153.49a8.77,8.77,0,0,0,8.11,2.24" style="fill:none;stroke:#263238;stroke-linecap:round;stroke-linejoin:round"></path><path d="M97.91,141.48c0,1.31-.63,2.37-1.4,2.37s-1.4-1.06-1.4-2.37.63-2.38,1.4-2.38S97.91,140.17,97.91,141.48Z" style="fill:#263238"></path><ellipse cx="108.52" cy="138.96" rx="1.4" ry="2.38" style="fill:#263238"></ellipse><path d="M91.2,137.29s2.51-3.36,8.1-3.08" style="fill:none;stroke:#263238;stroke-linecap:round;stroke-linejoin:round"></path><path d="M104.05,131.14a5,5,0,0,1,5.87-3.63" style="fill:none;stroke:#263238;stroke-linecap:round;stroke-linejoin:round"></path><path d="M81.42,144.83s4.19,4.47,5.59,2.24,0-6.15.28-9.22,3.63-2.8,2.51-5.31-5,.28-5-2.52,7.55-7.26,14.81-7.26,15.09,7,21.52,3.91,3.91-9.78.28-12.85-10.9-2.8-10.9-2.8,8.94-2.79,5.87-5.59-10.9-3.07-15.09-1.39S92.6,108,92.6,108s3.63-5.87-1.4-3.35a15.91,15.91,0,0,0-8.38,9.5c-1.4,3.63-2.52,6.14-2.52,6.14s-3.35-2.51-5.86-1.39,2,2,2,2-5.87,3.36-5,7.83,6.15,10.89,7.55,11.73S81.42,144.83,81.42,144.83Z" style="fill:#263238;stroke:#263238;stroke-linecap:round;stroke-linejoin:round"></path><path d="M109.92,191.49V179.76c0-1.12,7.27-1.68,7.27-1.68l.27,1.68-3.07,1.67,2.08,4.64s10.49-6.87,11.61-5.47a3.72,3.72,0,0,1-.28,4.47,4.94,4.94,0,0,0-1.11,2.23s.27,7.55-1.68,8.38-12.3,3.64-12.3,3.64c-8.19,9.7-16.47,19.5-26.32,27.59-4,3.3-8.79,8.87-13.91,5.74-4.92-3-4.8-10.55-1.68-14.61,5.59-7.27,13-8.67,20.42-12.79A109.67,109.67,0,0,0,109.92,191.49Z" style="fill:#fff;stroke:#263238;stroke-linecap:round;stroke-linejoin:round"></path><path d="M116.47,186.07l2-18.3a2.17,2.17,0,0,1,2.11-2l6.68-.48a2.18,2.18,0,0,1,2.23,2.21l-1.4,13.14Z" style="fill:#263238;stroke:#263238;stroke-linecap:round;stroke-linejoin:round"></path></g><g id="freepik--Couch--inject-98"><path d="M393.3,335.23s5.6-14,2-43c-1.57-12.74-.45-38.91-17.87-39.76-18.59-.9-26.18.94-44.81,1.15-67.2.77-116.62,7.47-157.59,3.52-32.93-3.18-61.34-8.4-73,3.31s-10.69,36.65-9.67,41.49S101,339.85,101,339.85l290.52-1.31Z" style="fill:#999;stroke:#263238;stroke-linecap:round;stroke-linejoin:round"></path><path d="M104.82,326.87s-5.6-22.4-14.77-28.51-21.12.51-31,10.18-12.73,21.13-8.65,40.22,16,47.34,19.6,60.07,3.56,19.35,15.52,23.42,23.42,4.33,30.8-5.86,5.35-57-.51-74.58S104.82,326.87,104.82,326.87Z" style="fill:#b2b2b2;stroke:#263238;stroke-linecap:round;stroke-linejoin:round"></path><path d="M103.8,425.63C98.71,416,83.44,347,83.69,337.56s-7.38-25.2-16.8-26.48c-7.76-1-14,6.38-15.91,9-3,7.47-3.22,16.52-.63,28.66,4.07,19.09,3.56,47.93,7.12,60.66S61,428.77,73,432.84c7.87,2.68,28,3.11,34.41.6A62.43,62.43,0,0,0,103.8,425.63Z" style="fill:#8a8a8a;stroke:#263238;stroke-linecap:round;stroke-linejoin:round"></path><path d="M378,326.44s5.92-22.4,15.59-28.51,22.32.51,32.8,10.18,13.45,21.13,9.15,40.22-16.94,47.34-20.71,60.07-3.76,19.35-16.4,23.42-24.73,4.33-32.53-5.85-5.64-57,.54-74.59S378,326.44,378,326.44Z" style="fill:#b2b2b2;stroke:#263238;stroke-linecap:round;stroke-linejoin:round"></path><path d="M379.06,426.62c5.37-9.8,21.5-79.63,21.24-89.16S408.09,312,418,310.66c8.2-1.07,14.75,6.45,16.8,9.12,3.21,7.56,3.41,16.72.68,29-4.31,19.33-10.88,47.93-14.65,60.82s-3.76,19.58-16.4,23.71c-8.31,2.71-22.45,3.75-29.23,1.2A63.4,63.4,0,0,1,379.06,426.62Z" style="fill:#8a8a8a;stroke:#263238;stroke-linecap:round;stroke-linejoin:round"></path><path d="M400.43,369.85s-6.36,39.52-10.44,52.76-2.8,13.24-9.67,13.75-267.61-.22-275.76-1.49-12.47-7.39-14.76-16-4.58-47.93-4.58-47.93l304.26-1Z" style="fill:#999;stroke:#263238;stroke-linecap:round;stroke-linejoin:round"></path><path d="M85.23,377.16a8.83,8.83,0,0,0,6.84,5.37c5.38,1,143.21,2.45,147.6,2.45s116.81,0,134.9-1.47,27.29-3.86,25.86-13.66-.94-2-.94-2L82.3,371.78Z" style="fill:#263238"></path><path d="M105.58,325.59S86,338.83,80.38,344.94s-2.54,10.94-2,15.53,2.8,14.76,9.41,18.32,88.84,2,136.7,3.57S375.23,382.07,388,379s15.75-18.84,16.51-27.75-8.37-21.38-13.46-22.9-47.43-1.75-94.52-.73-68.67,5.12-122.38,4.1S117.8,323.3,105.58,325.59Z" style="fill:#b2b2b2"></path><g style="clip-path:url(#freepik--clip-path--inject-98)"><path d="M78.35,360.47c.5,4.58,2.8,14.76,9.41,18.32s88.84,2,136.7,3.57S375.23,382.07,388,379s20.36-15.27,21.12-24.18a11.58,11.58,0,0,0-.44-4c-1.8,1.79-5.25-.15-9.34-.73-9.07-1.31-104.5,4.63-175.92,4.63-77.56,0-102.83,0-141.21-7.38-5.71-1.1-1.79-2.43-1.79-2.43C74.78,351.05,77.84,355.88,78.35,360.47Z" style="fill:#999"></path></g><path d="M105.58,325.59S86,338.83,80.38,344.94s-2.54,10.94-2,15.53,2.8,14.76,9.41,18.32,88.84,2,136.7,3.57S375.23,382.07,388,379s15.75-18.84,16.51-27.75-8.37-21.38-13.46-22.9-47.43-1.75-94.52-.73-68.67,5.12-122.38,4.1S117.8,323.3,105.58,325.59Z" style="fill:none;stroke:#263238;stroke-linecap:round;stroke-linejoin:round"></path><path d="M244.14,258.14l-.4,72.13S240.59,350,241,352.73s.39,29.56.39,29.56" style="fill:none;stroke:#263238;stroke-linecap:round;stroke-linejoin:round"></path></g><g id="freepik--character-4--inject-98"><path d="M372,276.52a14.19,14.19,0,0,1,8.94,1.56c4,2.46,10.51,10.51,10.51,10.51l6.93-19.23s-3.13-5.81-3.13-7.82-.22-4-.22-4.92,2-1.79,2-.89a26,26,0,0,0,.67,3.57L400,262l1.34-11.17s1.11-1.34,1.56-.23.26,6.87.26,6.87l1.11,0,1.06-9.05s.32-.43,1.39-.32a.77.77,0,0,1,.74,1.06l-.74,8.53.64.1,1.78-7.87s.75-.74,1.28-.32a2,2,0,0,1,.53,1.39l-1.14,8.19,2.53-4.68s1.06-.42,1.06.43a67.5,67.5,0,0,1-2.85,8.3c-.21.32-4.26,7.77-4.26,7.77s-3.3,19.71-4.79,24-4.69,8.09-9.27,8.31-9.8-5-9.8-5Z" style="fill:#fff;stroke:#263238;stroke-linecap:round;stroke-linejoin:round"></path><path d="M402.48,268.33s.78-3.47,1.73-4.57a9,9,0,0,1,3-1.9" style="fill:none;stroke:#263238;stroke-linecap:round;stroke-linejoin:round"></path><path d="M357,268.91s-.44,6.26-.89,8-3.13,1.34-5.59,1.34-3.35,4-3.8,7.6-5.81,43.37-4.92,49,10.29,11.63,20.57,12.3,24.81-.9,30.63-5.37,6.48-8,5.14-12.52-4.92-9.16-6.71-11.17-3.58-4.47-3.58-4.47-10.06-33.31-12.52-35.77-7.37-1.34-7.37-1.34l-1.57-8.28Z" style="fill:#54C9FF;stroke:#263238;stroke-linecap:round;stroke-linejoin:round"></path><path d="M347.66,331s10.57-23.27,37.56-16" style="fill:none;stroke:#263238;stroke-linecap:round;stroke-linejoin:round"></path><path d="M354.51,318.32s7.63-6.26,15.84-6.06" style="fill:none;stroke:#263238;stroke-linecap:round;stroke-linejoin:round"></path><path d="M369.93,276.28a11.88,11.88,0,0,0-1.95.24l-1.57-8.28-9.39.67s-.44,6.26-.89,8c-.22.89-1,1.22-2,1.34.75,2,3.5,8.13,9.83,8.5C369.57,287.13,370.06,280,369.93,276.28Z" style="fill:#fff;stroke:#263238;stroke-linecap:round;stroke-linejoin:round"></path><path d="M356.57,274a25.49,25.49,0,0,0,5.15.62,16.57,16.57,0,0,0,5.74-.89l-1-5.52-9.39.67S356.83,271.65,356.57,274Z" style="fill:#263238;stroke:#263238;stroke-linecap:round;stroke-linejoin:round"></path><path d="M380.72,231.36s7.38-5.37,16.32-4,8.27,15.43,4.92,19.23-11.4,1.34-11.4-.45,1.34-7.82-2-11a7,7,0,0,0-6.93-1.79Z" style="fill:#263238;stroke:#263238;stroke-linecap:round;stroke-linejoin:round"></path><path d="M345,247.68a36.1,36.1,0,0,0-.22,6c.22,2.24-2.91,3.8-.9,7.6s6.71,10.29,17.89,10.51,18.55-10.28,18.55-20.12S368,234.26,361.49,234.26s-13.63,5.59-15,7.83A14.8,14.8,0,0,0,345,247.68Z" style="fill:#fff;stroke:#263238;stroke-linecap:round;stroke-linejoin:round"></path><path d="M357.92,256a1.93,1.93,0,1,1-1.9-1.57A1.76,1.76,0,0,1,357.92,256Z" style="fill:none;stroke:#263238;stroke-linecap:round;stroke-linejoin:round"></path><path d="M352.55,259.53s2.69,3.13,8.05.22" style="fill:none;stroke:#263238;stroke-linecap:round;stroke-linejoin:round"></path><ellipse cx="351.21" cy="251.48" rx="1.34" ry="2.24" style="fill:#263238"></ellipse><path d="M362.17,251.7c0,1.24-.61,2.24-1.35,2.24s-1.34-1-1.34-2.24.6-2.23,1.34-2.23S362.17,250.47,362.17,251.7Z" style="fill:#263238"></path><path d="M349,247.68a4.73,4.73,0,0,1,4.47-1.34" style="fill:none;stroke:#263238;stroke-linecap:round;stroke-linejoin:round"></path><path d="M359,246.11s4.24-.89,5.58,2.91" style="fill:none;stroke:#263238;stroke-linecap:round;stroke-linejoin:round"></path><path d="M358.81,235.61s6.26,13.86,11.85,17.43,10.95,1.12,11.85-.89a20.18,20.18,0,0,0,1.34-15c-2.24-7.6-6.93-12.52-14.31-12.07s-15.87,6.48-15.87,6.48Z" style="fill:#263238;stroke:#263238;stroke-linecap:round;stroke-linejoin:round"></path><path d="M361.49,236.28S347,247.23,344.28,249.47s-6.26.89-8.72-7.16,2.69-14.75,9.62-14.75S359.93,232,359.93,232" style="fill:#263238;stroke:#263238;stroke-linecap:round;stroke-linejoin:round"></path><path d="M373.88,255.69s3.57-6,6.93-5.59,1.56,8.72-.23,10.73-5.14-.22-5.14-.22" style="fill:#fff;stroke:#263238;stroke-linecap:round;stroke-linejoin:round"></path><path d="M353.67,281.88a4.23,4.23,0,0,0-5.59-2.91c-4.47,1.35-6,11.18-7.15,17.44s-8.27,41.81-8.27,41.81-7.38,1.11-10.51,2-.67,1.34,3.8,1.79,7.15.89,7.15.89-4.91,2.46-.44,2.46,7.15-2.91,7.6-4,12.52-46.28,13.41-51.42S353.67,281.88,353.67,281.88Z" style="fill:#fff;stroke:#263238;stroke-linecap:round;stroke-linejoin:round"></path><path d="M396.17,322s-6.45-4.31-13.1.19-1.57,16.82-.2,21.13,6.65,16.62,9.2,22.88,4.69,16,5.28,17.8,5.28,2.94,7.23,2.55a74.92,74.92,0,0,0,13.31-5.68c2.34-1.56,2.93-4.3,1.56-4.89s-14.87-.39-14.87-.39-2.54-8-2.93-14.08-2.74-23.67-2.93-29.54S397,323.21,396.17,322Z" style="fill:#fff;stroke:#263238;stroke-linecap:round;stroke-linejoin:round"></path><path d="M403.22,377.39a6,6,0,0,1-.4,2,45.06,45.06,0,0,1-6.55.65c.51,2,.88,3.46,1.08,4,.58,1.76,5.28,2.94,7.23,2.55a74.92,74.92,0,0,0,13.31-5.68c2.34-1.56,2.93-4.3,1.56-4.89s-14.87-.39-14.87-.39S403.22,376.42,403.22,377.39Z" style="fill:#263238;stroke:#263238;stroke-linecap:round;stroke-linejoin:round"></path><path d="M385.81,383.46s-1.61,0-5.19-24.54c-1.57-10.74-.39-28.28-4.5-34.15s-17-4.1-17,8.51,11.73,40.2,15,48.12,4.11,12.91,7,13.5,14.38-2.35,18.78-5.28,5.28-7,2.35-7S385.81,383.46,385.81,383.46Z" style="fill:#fff;stroke:#263238;stroke-linecap:round;stroke-linejoin:round"></path><path d="M383.81,384.68a3.37,3.37,0,0,0,.3,3.08c.55.6-1.38.9-7.27,1,1.35,3.6,2.39,5.79,4.27,6.17,2.94.59,14.38-2.35,18.78-5.28s5.28-7,2.35-7-16.43.88-16.43.88A3,3,0,0,0,383.81,384.68Z" style="fill:#263238;stroke:#263238;stroke-linecap:round;stroke-linejoin:round"></path></g><g id="freepik--character-3--inject-98"><path d="M287.3,195a18.13,18.13,0,0,0-5.3-12.07c-5.3-5-17.07-6.18-22.66,1.47s-5.59,13.84-3.53,15.31l2.06,1.47s-2.65,5,.29,7.36,5.3,4.71,5.89,2.06-3.83-8.24,2.94-12.66S287.3,195,287.3,195Z" style="fill:#263238;stroke:#263238;stroke-linecap:round;stroke-linejoin:round"></path><path d="M284.06,188.8s8.83-7.36,13.83-1.18-5.29,14.13-6.76,15-7.36-11.18-7.36-11.18S282.3,190.27,284.06,188.8Z" style="fill:#263238;stroke:#263238;stroke-linecap:round;stroke-linejoin:round"></path><path d="M292.11,204.11s3.33-4.9,5.09-.79-2,9.8-3.72,11S292.11,204.11,292.11,204.11Z" style="fill:#fff;stroke:#263238;stroke-linecap:round;stroke-linejoin:round"></path><path d="M262.14,209s-3.14-7.24-5.29-4.11.2,11.36,4.31,11.36a9.41,9.41,0,0,0,1.17-2.74" style="fill:#fff;stroke:#263238;stroke-linecap:round;stroke-linejoin:round"></path><path d="M309.85,280c-3.43-9.06,1.57-32.79-6.24-36.54s-18.73-5-18.73-5l-9.06.33-9.06-.33s-10.93,1.25-18.74,5-2.81,27.48-6.24,36.54-6.25,20.91-5,28.41,5.62,10.3,9.06,11.24c2.36.64,19.51.4,30,.19,10.46.21,27.61.45,30-.19,3.43-.94,7.8-3.75,9.05-11.24S313.29,289,309.85,280Z" style="fill:#54C9FF;stroke:#263238;stroke-linecap:round;stroke-linejoin:round"></path><path d="M255.79,283.12s21.83-10.76,39.17-3" style="fill:none;stroke:#263238;stroke-linecap:round;stroke-linejoin:round"></path><path d="M269.85,272.66s10.46-1.5,17.64,2.39" style="fill:none;stroke:#263238;stroke-linecap:round;stroke-linejoin:round"></path><path d="M271,232.7s-6.07,2-7.05,4.71-2.94,10.18-2.74,13.51,2.15,5.09,3.13,3.53,10.38-5.68,11.56-6.27,8.42,1.57,9.79,3.13,5.29,5.88,5.88,4.31,0-8.62-2-14.88-3.72-7.25-7.25-8.23S271,232.7,271,232.7Z" style="fill:#fff;stroke:#263238;stroke-linecap:round;stroke-linejoin:round"></path><path d="M268.8,232.31s.39,9.8,2,14.89,5.87,11.95,7.83,11,4.12-10,5.09-13.71a87.74,87.74,0,0,0,1.57-11.17S271.34,234.27,268.8,232.31Z" style="fill:#fff;stroke:#263238;stroke-linecap:round;stroke-linejoin:round"></path><path d="M285.25,233.29s-13.91,1-16.45-1c0,0,.11,2.67.43,5.95a30.61,30.61,0,0,0,14.44,1.06c.34-.07.65-.16,1-.24C285,236.07,285.25,233.29,285.25,233.29Z" style="fill:#263238;stroke:#263238;stroke-linecap:round;stroke-linejoin:round"></path><path d="M261.89,199.29s-3.33,26.33,0,30.87,14.82,7,21.78,5.44,10.29-6,10.6-14.83-2.12-23.3-5.15-25.41-10.59-4.85-17.25-2.73S262.79,196.87,261.89,199.29Z" style="fill:#fff;stroke:#263238;stroke-linecap:round;stroke-linejoin:round"></path><path d="M271.88,191s-2,7.58-6.78,10-3.59-4-2.39-7.58" style="fill:#263238;stroke:#263238;stroke-linecap:round;stroke-linejoin:round"></path><path d="M269.1,208.72s3.41-3,6-.4" style="fill:none;stroke:#263238;stroke-linecap:round;stroke-linejoin:round"></path><path d="M282.17,208.11s2.81-3.82,5.83.21" style="fill:none;stroke:#263238;stroke-linecap:round;stroke-linejoin:round"></path><path d="M280.16,203.13l1.17,12.93s-3.52,1.76-5.09-1.57" style="fill:#fff;stroke:#263238;stroke-linecap:round;stroke-linejoin:round"></path><path d="M268.6,203.13a9.84,9.84,0,0,1,7-1.57" style="fill:none;stroke:#263238;stroke-linecap:round;stroke-linejoin:round"></path><path d="M280.55,201.76a6.34,6.34,0,0,1,6.66-.2" style="fill:none;stroke:#263238;stroke-linecap:round;stroke-linejoin:round"></path><path d="M277.42,215.86s-8.11,1.54-7.52,2.91,3.08,3,5.43,2.82,4.05-3,4.05-3,3.79,5.6,8.82.77c1.61-1.54-6.87-3.31-6.87-3.31S278.59,217.23,277.42,215.86Z" style="fill:#263238"></path><path d="M309.31,311.93s-.6-5.27-19.43-9.61S257.29,302,251,306.66s-10.17,7.75-12.56,16.12-3,24.79,15.85,29.13,48.73,3.69,57.4-4.81C325.68,333.4,312,315,309.31,311.93Z" style="fill:#263238;stroke:#263238;stroke-linecap:round;stroke-linejoin:round"></path><path d="M288.79,308.74s-5.82-.54-7.49-.91-7.43,2.79-10.59,4.46a12.39,12.39,0,0,0-5.21,6.32c0,.56-.55,3.34.38,3.72s5.57-.75,6.87-.75,8.55-2.23,10.41-2,8.57-3.58,8.57-3.58Z" style="fill:#fff;stroke:#263238;stroke-linecap:round;stroke-linejoin:round"></path><path d="M281.12,316.75s-5.21.56-6.51,1.67a33.45,33.45,0,0,1-4.46,2.79" style="fill:none;stroke:#263238;stroke-linecap:round;stroke-linejoin:round"></path><path d="M278.89,314a34.36,34.36,0,0,0-6.51,2.6,39.51,39.51,0,0,0-5.39,5" style="fill:none;stroke:#263238;stroke-linecap:round;stroke-linejoin:round"></path><path d="M277.77,311.55s-7.25,2.6-8.55,3.53a37.72,37.72,0,0,0-3.72,3.53" style="fill:none;stroke:#263238;stroke-linecap:round;stroke-linejoin:round"></path><path d="M303.38,242.21s9.06,1.56,13.43,6.24,9.68,28.41,12.18,37.47,3.75,22.66,2.5,25.47S324.65,316,320,316s-29.08.53-29.08.53l-3.43-7.5L312,297.62l-6.16-35.74" style="fill:#54C9FF;stroke:#263238;stroke-linecap:round;stroke-linejoin:round"></path><path d="M251.77,242.21s-9.06,1.56-13.43,6.24-9.68,28.41-12.17,37.47-3.93,20.58-2.68,23.39,7.81,7.18,12.49,7.18,27.5-.53,27.5-.53l2.94-7.22L243.48,296.2l5.79-34.32" style="fill:#54C9FF;stroke:#263238;stroke-linecap:round;stroke-linejoin:round"></path><path d="M266.42,308.74s5.81-.54,7.48-.91,7.44,2.79,10.6,4.46a12.35,12.35,0,0,1,5.2,6.32c0,.56.56,3.34-.37,3.72s-5.58-.75-6.88-.75-8.55-2.23-10.41-2-8.56-3.58-8.56-3.58Z" style="fill:#fff;stroke:#263238;stroke-linecap:round;stroke-linejoin:round"></path><path d="M274.09,316.75s5.2.56,6.5,1.67a34.13,34.13,0,0,0,4.46,2.79" style="fill:none;stroke:#263238;stroke-linecap:round;stroke-linejoin:round"></path><path d="M276.32,314a34.09,34.09,0,0,1,6.5,2.6,38.88,38.88,0,0,1,5.39,5" style="fill:none;stroke:#263238;stroke-linecap:round;stroke-linejoin:round"></path><path d="M277.43,311.55s7.25,2.6,8.55,3.53a37.72,37.72,0,0,1,3.72,3.53" style="fill:none;stroke:#263238;stroke-linecap:round;stroke-linejoin:round"></path><path d="M270.44,327.37s-14.95-13.75-27.5-14.05-20,8.67-19.44,22.42,14.63,105.81,14.63,105.81l14.35-.3,3.61-104.61" style="fill:#263238;stroke:#263238;stroke-linecap:round;stroke-linejoin:round"></path><path d="M238.13,441.55s-7.78,5.38-9.87,11.66,9.87,4.49,15-.59a86.37,86.37,0,0,0,9.27-11.37Z" style="fill:#fff;stroke:#263238;stroke-linecap:round;stroke-linejoin:round"></path><path d="M282.67,327.37s14.95-13.75,27.51-14.05,20,8.67,19.43,22.42-20.06,105.81-20.06,105.81l-14.35-.3L297,336.64" style="fill:#263238;stroke:#263238;stroke-linecap:round;stroke-linejoin:round"></path><path d="M309.55,441.55s7.78,5.38,9.87,11.66-9.87,4.49-14.95-.59a86.37,86.37,0,0,1-9.27-11.37Z" style="fill:#fff;stroke:#263238;stroke-linecap:round;stroke-linejoin:round"></path></g><g id="freepik--character-2--inject-98"><path d="M198.22,209.47s7.89-2.63,9.1-7.28-3.23-20.24-16.59-25.71-35.22-1.62-42.71,6.89.41,16.39.61,18.21-5.87,3-6.88,10.73,8.91,15.58,19.63,18,16-.61,16-4.66-2.43-7.69,2.23-10.72,9.91-8.7,12.14-8.5S198.22,209.47,198.22,209.47Z" style="fill:#263238"></path><g style="clip-path:url(#freepik--clip-path-2--inject-98)"><path d="M181.19,184.4a45,45,0,0,1-23,18.6c-15.67,5.39-21.05,1.47-21.05,1.47" style="fill:none;stroke:#636363;stroke-linecap:round;stroke-linejoin:round"></path><path d="M173.84,181s-14.68,19.58-32.8,19.09" style="fill:none;stroke:#636363;stroke-linecap:round;stroke-linejoin:round"></path><path d="M187.06,184.4s-25,37.7-54.83,37.7" style="fill:none;stroke:#636363;stroke-linecap:round;stroke-linejoin:round"></path><path d="M176.78,178s24.86,13.05,30.54,24.15" style="fill:none;stroke:#636363;stroke-linecap:round;stroke-linejoin:round"></path></g><path d="M198.22,209.47s7.89-2.63,9.1-7.28-3.23-20.24-16.59-25.71-35.22-1.62-42.71,6.89.41,16.39.61,18.21-5.87,3-6.88,10.73,8.91,15.58,19.63,18,16-.61,16-4.66-2.43-7.69,2.23-10.72,9.91-8.7,12.14-8.5S198.22,209.47,198.22,209.47Z" style="fill:none;stroke:#263238;stroke-linecap:round;stroke-linejoin:round"></path><path d="M193.56,248.53s11.74,3.24,17.2,10.93,10.12,26.11,12,34-.57,16.55-6,19.38-14.42-8-16.64-12.09-2.23-18.82-4-28.74-5.46-22.26-5.46-22.26S188.91,247.72,193.56,248.53Z" style="fill:#fff;stroke:#263238;stroke-linecap:round;stroke-linejoin:round"></path><path d="M170.08,223s1.22,12.15,0,14.78-5.66,5.66-13.15,8.09-12.55,4.46-16.6,11.34-8.48,41.81-13.56,51c-5.18,9.38-6.39,28.56,5.89,38.08,10,7.79,45.12,6.85,57.66,5s23.7-.07,27.14-8.77-3.66-23.41-7.1-27.86S200,305.81,200,305.81s4.32-7.5,4.65-13.76c.61-11.34-11.13-43.52-11.13-43.52s-7.08-3-8.7-6.88-1-9.31-1-9.31Z" style="fill:#54C9FF;stroke:#263238;stroke-linecap:round;stroke-linejoin:round"></path><path d="M151.06,317.6s20.64.9,31.86,9.87" style="fill:none;stroke:#263238;stroke-linecap:round;stroke-linejoin:round"></path><path d="M164.42,298.93s12.14,1.82,23.47-2.43" style="fill:none;stroke:#263238;stroke-linecap:round;stroke-linejoin:round"></path><path d="M178.38,300.75s8.1-1.21,12.75-4.05" style="fill:none;stroke:#263238;stroke-linecap:round;stroke-linejoin:round"></path><path d="M145.8,284c4.45-2.63,9.91-14.77,10.93-24.49.8-7.72-1.08-11.6-1.88-12.86-6.36,2.16-10.86,4.42-14.52,10.64-2.5,4.25-5.77,18.94-8.72,31.89C135.6,289.2,141.77,286.33,145.8,284Z" style="fill:#fff;stroke:#263238;stroke-linecap:round;stroke-linejoin:round"></path><path d="M184.86,241.65c-1.62-3.84-1-9.31-1-9.31L170.08,223s1.22,12.15,0,14.78c-.94,2-3.83,4.32-8.58,6.38.84,3.71,3.3,13.22,7.17,17.09,4.85,4.86,14.16,5.87,17.4-.6s1.62-15.38,1.62-15.38l.08-.21A9.53,9.53,0,0,1,184.86,241.65Z" style="fill:#fff;stroke:#263238;stroke-linecap:round;stroke-linejoin:round"></path><path d="M183.85,232.34l-11.95-8.08-1.63.89c.12,1.53.27,3.68.33,5.82,2.65,3,6.49,6.71,10.05,7.39a13.29,13.29,0,0,0,3.37.21A26.21,26.21,0,0,1,183.85,232.34Z" style="fill:#263238"></path><path d="M189.11,195.71s-4.45,7.49-11.54,11.33a55.2,55.2,0,0,1-12.14,5.06s.2,2.43-.81,2.43-3.24-3.64-4.65-3.84-5.87,5.66-4.26,8.09a13.5,13.5,0,0,0,6.08,4.86c2,.81,4.25-1.82,4.25-1.82s15.58,19,24.49,14.17,8.29-29.75,8.29-29.75S196.8,200.77,189.11,195.71Z" style="fill:#fff;stroke:#263238;stroke-linecap:round;stroke-linejoin:round"></path><path d="M183.14,211.5c0,1.28-.59,2.32-1.32,2.32s-1.31-1-1.31-2.32.59-2.33,1.31-2.33S183.14,210.21,183.14,211.5Z" style="fill:#263238"></path><path d="M195.69,210.28c0,1.29-.59,2.33-1.32,2.33s-1.31-1-1.31-2.33.58-2.32,1.31-2.32S195.69,209,195.69,210.28Z" style="fill:#263238"></path><path d="M190.93,208.06l-1.21,3.84s3.23,1,3.23,2.84-3,2.63-3.64,2.63" style="fill:none;stroke:#263238;stroke-linecap:round;stroke-linejoin:round"></path><path d="M186.88,223.24a4.52,4.52,0,0,0,4.25,0" style="fill:none;stroke:#263238;stroke-linecap:round;stroke-linejoin:round"></path><path d="M179.19,206.64s1.82-3.24,5.26-2.43" style="fill:none;stroke:#263238;stroke-linecap:round;stroke-linejoin:round"></path><path d="M192.75,204.82a2.65,2.65,0,0,1,3.64,1.21" style="fill:none;stroke:#263238;stroke-linecap:round;stroke-linejoin:round"></path><path d="M186.27,315.21s6.89,1.13,7.3,2,2.7,5.82,2.08,7.27-1.87-.62-2.28-2.08-5-4.77-5-4.77" style="fill:#fff;stroke:#263238;stroke-linecap:round;stroke-linejoin:round"></path><path d="M185.06,315.33s5.84,1.81,6.41,2.55c1.21,1.57,3.59,5.47,3,6.92s-1.4.58-4.42-4.14a13.45,13.45,0,0,0-2.85-2.71" style="fill:#fff;stroke:#263238;stroke-linecap:round;stroke-linejoin:round"></path><path d="M153.8,246.6s-13.64,2.61-21.33,8.42S120,291.76,119.19,299.24s-1.66,14.53,2.07,16,31.56,2.7,37.16,2.7S179.6,320,180.84,320s8.51,4.57,9.76,5.82,1.43-1.08.83-3.33c-.81-3-5-7.68-10.17-9.34s-13.91-.83-19.52-3.94S142.65,299,140.57,298.61a17.71,17.71,0,0,0-2.7-.41s10.8-24.08,11.83-27.61" style="fill:#fff;stroke:#263238;stroke-linecap:round;stroke-linejoin:round"></path><path d="M185.62,319.16s5,3.53,5,6.65" style="fill:none;stroke:#263238;stroke-linecap:round;stroke-linejoin:round"></path><path d="M216,299a17.81,17.81,0,0,0-13.16,1.82c-6.47,3.85-10.12,7.49-14,8.5s-10.32.41-15.18,2.43a100.45,100.45,0,0,1-10.32,3.44c-2.43.81-2.23,2.63-.41,2.63s4.25-.2,4.25-.2-3.23,5.06-3.23,6.68,4.85,1.82,6.67,1.41,4.86-4.25,5.87-4.65,4.86.2,7.69-1.82,4.05-3,4.05-3,11.54,3.64,20,1.62,11.43-3.94,13.86-12.64" style="fill:#fff;stroke:#263238;stroke-linecap:round;stroke-linejoin:round"></path><path d="M167.22,317.63a16.17,16.17,0,0,1,4.05-3.44" style="fill:none;stroke:#263238;stroke-linecap:round;stroke-linejoin:round"></path><path d="M165.4,324.91s3.65-6.88,8.5-9.71" style="fill:none;stroke:#263238;stroke-linecap:round;stroke-linejoin:round"></path><path d="M168.22,325.43s1.47-5.59,8.11-9" style="fill:none;stroke:#263238;stroke-linecap:round;stroke-linejoin:round"></path><path d="M170.66,325.72A10.86,10.86,0,0,1,178,318" style="fill:none;stroke:#263238;stroke-linecap:round;stroke-linejoin:round"></path><path d="M211.26,331.5s-9-4.18-17.68,3.85-8.6,12-20.16,28.43-28.28,46.59-31.81,48.84-14.78,6.74-17,13.49,1,8.68,5.78,6.75,12.85-15.75,14.14-16.71,28.6-22.81,43.06-31.17,21.77-16.21,27.55-30.67S216.4,332.46,211.26,331.5Z" style="fill:#fff;stroke:#263238;stroke-linecap:round;stroke-linejoin:round"></path><path d="M144.28,416.37a8.51,8.51,0,0,1-3.56-3.23c-4.22,2.38-14,6.71-16.14,13-2.25,6.75,1,8.68,5.78,6.75C135,431,142.48,418.36,144.28,416.37Z" style="fill:#263238;stroke:#263238;stroke-linecap:round;stroke-linejoin:round"></path><path d="M146.3,423.61s16.2-26.36,26.48-42.75,15.11-26.34,15.11-34.38c0,0,.42-11.83-9-11.89-5.79,0-16.71,3.54-24.74,19s-13.82,65.87-14.78,68.76-1,20.89,1.6,25.07,7.07,1.28,7.39-7.72A49.66,49.66,0,0,0,146.3,423.61Z" style="fill:#fff;stroke:#263238;stroke-linecap:round;stroke-linejoin:round"></path><path d="M139.14,423.39c-.72,4.84-.51,20.17,1.83,24,2.58,4.17,7.07,1.28,7.39-7.72a49.66,49.66,0,0,0-2.06-16.05S142.63,428.05,139.14,423.39Z" style="fill:#263238;stroke:#263238;stroke-linecap:round;stroke-linejoin:round"></path></g></svg>